HIERARCHY
ROOT Hips
{
	OFFSET 0.000000 0.000000 0.000000
	CHANNELS 6 Xposition Yposition Zposition Zrotation Yrotation Xrotation 
	JOINT LHipJoint
	{
		OFFSET 0.000000 0.000000 0.000000
		CHANNELS 3 Zrotation Yrotation Xrotation
		JOINT LeftUpLeg
		{
			OFFSET 1.363060 -1.794630 0.839290
			CHANNELS 3 Zrotation Yrotation Xrotation
			JOINT LeftLeg
			{
				OFFSET 2.448110 -6.726130 0.000000
				CHANNELS 3 Zrotation Yrotation Xrotation
				JOINT LeftFoot
				{
					OFFSET 2.562200 -7.039590 0.000000
					CHANNELS 3 Zrotation Yrotation Xrotation
					JOINT LeftToeBase
					{
						OFFSET 0.157640 -0.433110 2.322550
						CHANNELS 3 Zrotation Yrotation Xrotation
						End Site
						{
							OFFSET 0.000000 0.000000 0.000000
						}
					}
				}
			}
		}
	}
	JOINT RHipJoint
	{
		OFFSET 0.000000 0.000000 0.000000
		CHANNELS 3 Zrotation Yrotation Xrotation
		JOINT RightUpLeg
		{
			OFFSET -1.305520 -1.794630 0.839290
			CHANNELS 3 Zrotation Yrotation Xrotation
			JOINT RightLeg
			{
				OFFSET -2.542530 -6.985550 0.000000
				CHANNELS 3 Zrotation Yrotation Xrotation
				JOINT RightFoot
				{
					OFFSET -2.568260 -7.056230 0.000000
					CHANNELS 3 Zrotation Yrotation Xrotation
					JOINT RightToeBase
					{
						OFFSET -0.164730 -0.452590 2.363150
						CHANNELS 3 Zrotation Yrotation Xrotation
						End Site
						{
							OFFSET 0.000000 0.000000 0.000000
						}
					}
				}
			}
		}
	}
	JOINT LowerBack
	{
		OFFSET 0.000000 0.000000 0.000000
		CHANNELS 3 Zrotation Yrotation Xrotation
		JOINT Spine
		{
			OFFSET 0.028270 2.035590 -0.193380
			CHANNELS 3 Zrotation Yrotation Xrotation
			JOINT Spine1
			{
				OFFSET 0.056720 2.048850 -0.042750
				CHANNELS 3 Zrotation Yrotation Xrotation
				JOINT Neck
				{
					OFFSET 0.000000 0.000000 0.000000
					CHANNELS 3 Zrotation Yrotation Xrotation
					JOINT Neck1
					{
						OFFSET -0.054170 1.746240 0.172020
						CHANNELS 3 Zrotation Yrotation Xrotation
						JOINT Head
						{
							OFFSET 0.104070 1.761360 -0.123970
							CHANNELS 3 Zrotation Yrotation Xrotation
							End Site
							{
								OFFSET 0.000000 0.000000 0.000000
							}
						}
					}
				}
				JOINT LeftShoulder
				{
					OFFSET 0.000000 0.000000 0.000000
					CHANNELS 3 Zrotation Yrotation Xrotation
					JOINT LeftArm
					{
						OFFSET 3.362410 1.200890 -0.311210
						CHANNELS 3 Zrotation Yrotation Xrotation
						JOINT LeftForeArm
						{
							OFFSET 4.983000 -0.000000 -0.000000
							CHANNELS 3 Zrotation Yrotation Xrotation
							JOINT LeftHand
							{
								OFFSET 3.483560 -0.000000 -0.000000
								CHANNELS 3 Zrotation Yrotation Xrotation
								JOINT LeftFingerBase
								{
									OFFSET 0.000000 0.000000 0.000000
									CHANNELS 3 Zrotation Yrotation Xrotation
									JOINT LeftHandIndex1
									{
										OFFSET 0.715260 -0.000000 -0.000000
										CHANNELS 3 Zrotation Yrotation Xrotation
										End Site
										{
											OFFSET 0.000000 0.000000 0.000000
										}
									}
								}
								JOINT LThumb
								{
									OFFSET 0.000000 0.000000 0.000000
									CHANNELS 3 Zrotation Yrotation Xrotation
									End Site
									{
										OFFSET 0.000000 0.000000 0.000000
									}
								}
							}
						}
					}
				}
				JOINT RightShoulder
				{
					OFFSET 0.000000 0.000000 0.000000
					CHANNELS 3 Zrotation Yrotation Xrotation
					JOINT RightArm
					{
						OFFSET -3.136600 1.374050 -0.404650
						CHANNELS 3 Zrotation Yrotation Xrotation
						JOINT RightForeArm
						{
							OFFSET -5.241900 -0.000000 -0.000000
							CHANNELS 3 Zrotation Yrotation Xrotation
							JOINT RightHand
							{
								OFFSET -3.444170 -0.000000 -0.000000
								CHANNELS 3 Zrotation Yrotation Xrotation
								JOINT RightFingerBase
								{
									OFFSET 0.000000 0.000000 0.000000
									CHANNELS 3 Zrotation Yrotation Xrotation
									JOINT RightHandIndex1
									{
										OFFSET -0.622530 -0.000000 -0.000000
										CHANNELS 3 Zrotation Yrotation Xrotation
										End Site
										{
											OFFSET 0.000000 0.000000 0.000000
										}
									}
								}
								JOINT RThumb
								{
									OFFSET 0.000000 0.000000 0.000000
									CHANNELS 3 Zrotation Yrotation Xrotation
									End Site
									{
										OFFSET 0.000000 0.000000 0.000000
									}
								}
							}
						}
					}
				}
			}
		}
	}
}
MOTION
Frames: 5
Frame Time: 0.008333
-5.521817 16.304354 12.879970 70.471022 82.888717 79.115618 1.348425 2.594663 -4.051774 -18.197254 -11.171484 -35.092824 -6.215888 18.796503 37.287903 -0.438637 -0.800535 3.989947 11.395168 -0.260366 -16.103671 5.538543 7.858688 -8.087184 11.587539 -11.395857 -9.333277 -2.801005 -8.146674 39.463231 0.254158 4.507916 -15.652663 -11.573560 3.136914 -22.963171 -6.752144 -1.931662 16.699094 3.020450 4.789431 -11.159912 -2.609567 4.538042 -0.591572 -1.932072 1.382919 -13.172406 1.275122 0.828004 7.159777 -1.195101 -1.470851 17.701825 9.167838 0.654501 -2.608861 -87.508390 11.300468 22.354049 148.175598 -61.051118 -138.246083 -13.012739 18.425223 -4.615456 -0.000000 -0.000000 -0.000000 -0.000000 -0.000000 0.000000 0.000000 0.000000 0.000000 -5.980650 5.374263 2.153336 71.394183 37.508894 11.351628 -146.996705 76.107035 -142.187864 5.672900 -9.570810 -1.751294 -0.000000 0.000000 0.000000 -0.000000 0.000000 0.000000 -0.000000 0.000000 0.000000 
-5.256201 16.380480 12.908408 73.300701 82.722283 82.017535 1.547983 2.988660 -3.852195 -19.730979 -11.670326 -33.350095 -6.774245 17.054266 31.583408 -1.485531 -1.011881 4.638316 11.488604 0.090024 -16.517121 5.417421 8.161729 -8.111328 10.917521 -11.519304 -8.071230 -2.143345 -8.328490 38.847848 4.150715 5.206835 -14.378503 -11.950406 3.798499 -22.998012 -6.928617 -1.783768 16.585243 2.935096 5.002644 -11.278549 -2.940783 4.774022 -0.958592 -1.840623 1.359712 -12.953434 1.057455 0.787539 7.236926 -1.098997 -1.746920 17.905504 9.253831 0.208302 -2.753119 -87.332794 12.680788 22.397845 147.730730 -60.717839 -137.325375 -12.848353 18.262494 -4.546531 -0.000000 -0.000000 -0.000000 -0.000000 0.000000 -0.000000 0.000000 0.000000 0.000000 -5.803976 5.248304 2.155113 71.497812 36.566196 12.729721 -145.775794 74.680605 -140.014267 6.161621 -9.212241 -1.715331 0.000000 0.000000 0.000000 -0.000000 0.000000 0.000000 0.000000 0.000000 0.000000 
-4.990691 16.452853 12.932372 76.195948 82.628003 84.913136 1.637137 3.236721 -3.775210 -21.211185 -11.805359 -31.291429 -7.128424 15.115597 25.629513 -2.982424 -0.984550 6.047682 11.689626 0.226111 -16.894635 5.242774 8.416165 -8.076913 10.531173 -12.453540 -7.124022 -1.711231 -7.883360 38.383320 7.287196 5.960905 -12.870280 -11.378975 4.075509 -21.573977 -6.925178 -1.637127 16.503268 2.775140 5.245532 -11.347534 -3.045054 5.012206 -0.867735 -2.016081 1.294976 -13.141957 0.832108 0.762908 7.290421 -0.763928 -2.247331 18.138636 9.089052 -0.110966 -2.937285 -87.099871 13.644005 22.035540 148.060869 -60.663384 -138.697244 -11.914702 19.646928 -4.756474 -0.000000 -0.000000 -0.000000 0.000000 -0.000000 0.000000 0.000000 -0.000000 0.000000 -5.943627 4.890810 1.997458 71.609658 35.925973 13.772971 -145.713039 73.456006 -139.542882 7.153926 -9.292893 -1.799788 -0.000000 -0.000000 0.000000 -0.000000 0.000000 -0.000000 -0.000000 -0.000000 0.000000 
-4.726336 16.518468 12.954099 79.001218 82.463894 87.715319 2.062083 3.625689 -3.643365 -23.249312 -12.109670 -29.032626 -7.099214 12.752481 20.474924 -4.771635 -1.591445 6.389865 11.589803 0.018114 -16.590401 5.203379 8.729484 -8.123294 9.697061 -13.827743 -6.608565 -1.440678 -7.648376 38.366798 10.159325 6.332062 -11.434982 -10.871514 5.040459 -19.572960 -7.436798 -1.561535 16.490232 2.888754 5.354665 -11.516773 -2.985659 5.037847 -1.022467 -2.023443 1.414280 -13.039864 0.614980 0.856485 7.394126 0.027256 -2.420759 18.017530 8.983383 -0.352488 -3.031980 -87.201927 14.389009 21.761337 148.298395 -60.550512 -139.820401 -10.714238 20.764446 -4.829885 -0.000000 -0.000000 -0.000000 0.000000 0.000000 -0.000000 0.000000 0.000000 -0.000000 -5.785981 4.843601 1.952499 71.552230 35.073261 15.060364 -144.984024 72.707578 -137.898260 7.990092 -8.928671 -1.779682 -0.000000 -0.000000 0.000000 0.000000 0.000000 0.000000 -0.000000 -0.000000 0.000000 
-4.455751 16.578228 12.970991 81.625724 82.399025 90.216850 2.344416 4.206580 -3.716162 -25.290057 -12.127852 -26.193902 -6.796603 10.083176 14.984195 -6.926496 -1.959469 7.487309 11.517038 0.341795 -16.764507 5.061929 8.948079 -7.977100 9.075079 -14.348727 -5.855749 -1.096903 -8.084779 38.104798 13.262183 6.459108 -10.032198 -10.667521 6.810808 -17.440478 -7.750748 -1.517997 16.433019 2.943905 5.524747 -11.565708 -2.797056 5.157426 -0.909585 -2.182451 1.297944 -13.116886 0.409467 0.796645 7.466672 -0.335413 -2.735337 18.127070 8.753349 -0.607185 -3.112232 -87.299435 14.898104 22.103746 147.708179 -60.135335 -138.439007 -10.256886 20.124171 -4.593772 -0.000000 -0.000000 -0.000000 0.000000 -0.000000 0.000000 -0.000000 0.000000 -0.000000 -5.857886 4.643375 1.748139 71.523804 34.261419 16.622135 -143.596671 71.787782 -135.680029 8.186882 -8.713694 -1.746252 0.000000 -0.000000 -0.000000 0.000000 -0.000000 -0.000000 0.000000 -0.000000 -0.000000 
